<?xml version="1.0" encoding="utf-8"?>
<!-- Generator: Adobe Illustrator 21.1.0, SVG Export Plug-In . SVG Version: 6.00 Build 0)  -->
<svg version="1.1" id="Ebene_1" xmlns="http://www.w3.org/2000/svg" xmlns:xlink="http://www.w3.org/1999/xlink" x="0px" y="0px"
	 viewBox="0 0 100 100" style="enable-background:new 0 0 100 100;" xml:space="preserve">
<g>
	<g>
		<path d="M91.2,77.8c0-8.3-6.8-15.1-15.1-15.1c-1.4,0-2.7,0.2-3.9,0.5l-6-17.7l1.7-0.8l-2-1.1l-1.2,0.6c-0.4,0.2-0.6,0.7-0.5,1.1
			l1.4,4.1L57.5,52c0.2,0.6,0.3,1.3,0.2,1.9l8.5-2.6l0.9,2.6L53,68.8L51.6,73l16.1-17.1l2.7,8c-5.5,2.3-9.4,7.7-9.4,14
			c0,8.3,6.8,15.1,15.1,15.1C84.5,92.9,91.2,86.2,91.2,77.8z M63.6,77.8c0-5.2,3.1-9.6,7.6-11.5l4,11.8c0.1,0.4,0.5,0.6,0.9,0.6
			c0.1,0,0.2,0,0.3-0.1c0.5-0.2,0.8-0.7,0.6-1.2v0l-4-11.8c1-0.3,2-0.4,3.1-0.4c6.9,0,12.5,5.6,12.5,12.5c0,6.9-5.6,12.5-12.5,12.5
			C69.2,90.3,63.6,84.7,63.6,77.8z"/>
		<path d="M38.9,76.9c-0.3-4.4-2.5-8.4-5.8-11l3.8-5.6l1.3-0.4l3.9,10.7l0.9-2.9l-3-8.3l6.4-2l0.4-1.2l-1.3-0.5l-6.1,1.9l-0.8-2.2
			h1.9c0.5,0,0.9-0.4,0.9-0.9v-0.4l-5.7-2.3h-3.2c-0.5,0-0.9,0.4-0.9,0.9v1.7c0,0.5,0.4,0.9,0.9,0.9h4.1l1,2.8l-1.5,0.5
			c-0.2,0.1-0.4,0.2-0.5,0.4l-4,5.9c-2.3-1.4-4.9-2.1-7.7-2.1c-8.3,0-15.1,6.8-15.1,15.1c0,8.3,6.8,15.1,15.1,15.1
			c8,0,14.6-6.3,15.1-14.2h3c-0.5-0.5-0.8-1.2-1-1.9H38.9z M23.9,90.3c-6.9,0-12.5-5.6-12.5-12.5c0-6.9,5.6-12.5,12.5-12.5
			c2.3,0,4.4,0.6,6.3,1.7l-7,10.3c-0.2,0.3-0.2,0.7-0.1,1c0.2,0.3,0.5,0.5,0.8,0.5h12.4C35.8,85.2,30.5,90.3,23.9,90.3z M25.7,76.9
			l6-8.8c2.6,2.1,4.4,5.2,4.6,8.8H25.7z"/>
		<path d="M56.8,54.7c0.7-2.1-0.4-4.3-2.4-5.1l-13.1-5.3c2.3-3.9,5.5-7.4,7.8-10.1l-4.4-2.5c-0.8-0.4-1.4-1.2-1.6-2
			c-0.2-0.9-0.1-1.8,0.3-2.6c0.6-1.1,1.7-1.7,2.9-1.7c0.6,0,1.2,0.2,1.7,0.4l3.6,2.1c-0.1-0.9-0.5-1.8-1.1-2.4
			c-2.1-2-6.4-2.7-10.2,0.7c-5.2,4.7-7.7,8.2-10.6,15c-1.1,3.4-0.2,5.6,1.3,7.1c0.4,0.7,1.1,1.3,1.9,1.6l1.5,0.6
			c0.3,0.1,0.6,0.3,0.8,0.3l12.3,4.9l-6,18.6c-0.7,2.2,0.5,4.5,2.6,5.2c0.4,0.1,0.8,0.2,1.3,0.2c1.7,0,3.3-1.1,3.9-2.8L56.8,54.7z"
			/>
		<path d="M47.8,26.5c-1.3-0.7-2.9-0.3-3.6,1c-0.7,1.3-0.3,2.9,1,3.6l23.3,13.1c0.4,0.2,0.8,0.3,1.3,0.3c0.9,0,1.8-0.5,2.3-1.3
			c0.7-1.3,0.3-2.9-1-3.6L47.8,26.5z"/>
		<path d="M53.5,24.4c1.7,0.8,3.5,0.9,5.1,0.5c-2.6-2.7-3-5.1-3-6.5c-2.4,1.5-4.3,2.3-5.8,2.3C50.5,22.2,51.8,23.6,53.5,24.4z"/>
		<path d="M59.7,24.5c1.7-0.7,3.1-2,3.9-3.7c1.1-2.3,0.9-4.9-0.2-6.9c-1.3,0.4-3.1,1.1-3.8,1.7c-1,0.8-2,1.5-2.9,2.2
			C56.6,18.4,56.2,21.3,59.7,24.5z"/>
		<path d="M57.3,7.3c-4.6-1-9.2,1.9-10.2,6.5c-0.5,2.2-1.2,11.5,11.8,1c1.1-0.9,4.1-1.9,4.6-2c0.5,0,0.9,0,1.1-0.2
			c0.1,0,0.1-0.1,0.1-0.2c0-0.1-0.1-0.3-0.4-0.5c-0.4-0.4-1.1-0.8-1.8-1.2C61.3,9,59.5,7.7,57.3,7.3z M58.9,11.8
			c-0.6-0.4-0.8-1.1-0.5-1.4c0.3-0.4,1-0.3,1.5,0.1c0.6,0.4,0.8,1.1,0.5,1.4C60.2,12.2,59.5,12.2,58.9,11.8z"/>
	</g>
	<polygon points="59.3,54.3 57,56.7 53.9,66.1 54,66.2 62.5,57.3 	"/>
</g>
</svg>
