<?xml version="1.0" encoding="utf-8"?>
<!-- Generator: Adobe Illustrator 21.1.0, SVG Export Plug-In . SVG Version: 6.00 Build 0)  -->
<svg version="1.1" id="Ebene_1" xmlns="http://www.w3.org/2000/svg" xmlns:xlink="http://www.w3.org/1999/xlink" x="0px" y="0px"
	 viewBox="0 0 100 100" style="enable-background:new 0 0 100 100;" xml:space="preserve">
<style type="text/css">
	.st0{fill:#2C7BB6;}
</style>
<g>
	<path class="st0" d="M47.6,52.2l3.7,2l-2.1,8.1c-0.4,1.5,0.1,3.1,1.2,4.1h3.6l4.6-6.8l1.7-6.5c0.3-1.2,0.1-2.5-0.7-3.5H46.9
		C47.1,50.4,47.4,51.3,47.6,52.2z"/>
	<path class="st0" d="M46.3,41.9c-0.6,0.5-1.2,1.1-1.8,1.7c0.3,0.6,0.6,1.3,0.9,1.9c0,0,0,0,0,0H53L46.3,41.9z"/>
	<ellipse transform="matrix(0.672 -0.7406 0.7406 0.672 5.8382 56.6579)" class="st0" cx="66.9" cy="21.7" rx="7.6" ry="7.6"/>
	<path class="st0" d="M96.6,68.4c0-9.6-7.8-17.4-17.4-17.4c-2,0-3.8,0.3-5.6,0.9l1.7,3.6c1.2-0.4,2.5-0.6,3.9-0.6
		c7.4,0,13.5,6,13.5,13.5s-6,13.5-13.5,13.5s-13.5-6-13.5-13.5c0-4.6,2.3-8.7,5.9-11.2l-1.7-3.6c-4.9,3.1-8.2,8.5-8.2,14.7
		c0,9.6,7.8,17.4,17.4,17.4C88.8,85.8,96.6,78,96.6,68.4z"/>
	<path class="st0" d="M37.9,70.8c0-0.1,0.1-0.3,0.1-0.4h-0.3l0.1-0.7h0.4c0.2-0.9,0.3-1.8,0.4-2.7H38l0.1-0.7h0
		c-0.6-5.1-3.3-9.5-7.3-12.2l1.9-3l1.4-2.2h2.2c-0.6-1.4-1.1-2.2-1.4-2.6c-0.5-0.7-1.1-2.1-1.6-3.8c-2.7,0.3-4.7,1.2-4.7,2.3
		c0,0.8,1.1,1.5,2.8,2c0.2,0.1,0.5,0.1,0.7,0.2l-2,3.1l-1.7,2.7c-2.3-1.1-4.9-1.8-7.7-1.8c-9.6,0-17.4,7.8-17.4,17.4
		c0,9.6,7.8,17.4,17.4,17.4c8.3,0,15.3-5.8,17-13.6C37.8,71.8,37.8,71.3,37.9,70.8z M34.2,67.1H22.5l6.1-9.6
		C31.7,59.7,33.8,63.1,34.2,67.1z M20.8,81.9c-7.4,0-13.5-6-13.5-13.5S13.4,55,20.8,55c2,0,3.8,0.4,5.5,1.2l-7.4,11.6
		c-0.3,0.4-0.3,0.9,0,1.4c0.2,0.4,0.7,0.7,1.2,0.7h14.2C33.6,76.6,27.8,81.9,20.8,81.9z"/>
	<path class="st0" d="M79.2,69.8c0.2,0,0.4,0,0.6-0.1c0.7-0.3,1-1.1,0.6-1.8l-9.1-19.2c0.8-0.2,1.8-0.6,2.8-1.2
		c2.3-1.4,5.1-4.1,7.3-9c0.3-0.7,0-1.5-0.7-1.8c-0.7-0.3-1.5,0-1.8,0.7v0c-0.6,1.2-1.1,2.2-1.7,3.1c0.2,0.5,0.4,1.1,0.3,1.7
		c-0.2,1.7-1.6,3.1-3.3,3.1c-0.1,0-0.2,0-0.3,0c-0.4,0-0.7-0.1-1.1-0.1c0,0-0.1,0-0.1,0.1c-1.8,1.1-3.2,1.1-3.3,1.1c0,0,0,0,0,0
		c0,0,0,0,0,0c0,0,0,0,0,0H45.7c0.3,0.8,0.6,1.7,1,2.7h20L54.2,67.1h-5.8c-0.1,0.9-0.2,1.8-0.4,2.7H55c0.4,0,0.9-0.2,1.1-0.6
		l13-18.9L78,69C78.2,69.5,78.7,69.8,79.2,69.8z"/>
	<path class="st0" d="M48,62.1c0-6.9-1.6-12.4-3.2-16.3c-0.4-0.9-0.7-1.6-1.1-2.3c3.2-3.4,7.5-6.2,10.9-8.4
		c-2.2-2.5-3.5-4.6-3.7-5.1c-0.4-0.8-0.5-1.7-0.3-2.6c0.3-0.9,0.8-1.6,1.6-2c0.5-0.3,1-0.4,1.6-0.4c1.2,0,2.4,0.7,3,1.8l0,0.1
		c0,0.1,0.1,0.2,0.2,0.3c0.2,0.3,0.4,0.7,0.8,1.2c0.4,0.5,0.9,1.3,1.6,2.1c0.6-1.4,0.7-2.8,0-4.1c-1.5-2.6-5.5-4.4-10.2-2.2
		c-6.5,3.1-10,5.9-14.7,11.7c-2.2,3.3-0.1,8.6,1,10.1c1.5,2.2,4.1,7.9,4.1,16.1c0,2.7-0.3,5.7-1,8.9c-0.5,2.3,0.9,4.5,3.2,5
		c0.3,0.1,0.6,0.1,0.9,0.1c1.9,0,3.7-1.3,4.1-3.3C47.7,69,48,65.4,48,62.1z"/>
	<path class="st0" d="M57.3,28.7c-0.4-0.5-0.7-1-0.8-1.2c-0.1-0.1-0.2-0.3-0.2-0.3c0,0,0-0.1,0-0.1l0,0c-0.7-1.3-2.3-1.8-3.6-1.1
		c-1.3,0.7-1.8,2.3-1.1,3.6l0,0c0.1,0.2,1.9,3.4,5.5,6.9c3.6,3.5,9.3,7.2,16.9,7.9c0.1,0,0.2,0,0.2,0c1.4,0,2.6-1.1,2.7-2.5
		c0.1-1.5-1-2.8-2.4-2.9c-6.1-0.5-10.6-3.5-13.7-6.4C59.2,31.2,58.1,29.8,57.3,28.7z"/>
</g>
</svg>
